<svg width="110" height="32" viewBox="0 0 110 32" fill="none" xmlns="http://www.w3.org/2000/svg">
<g clip-path="url(#clip0_2423_33240)">
<path d="M26.1449 4.77022C26.4482 4.78244 26.6725 4.78569 26.7297 4.88422C30.1592 10.9197 35.0038 12.5023 37.4346 14.298C38.1526 14.8285 38.8333 15.7495 39.114 16.5141C39.5878 17.9015 39.5247 19.1372 39.5901 18.9017L39.7082 18.2635C39.7922 17.7688 39.9541 17.4107 40.0713 16.5669C40.4638 12.3609 38.5054 11.3832 37.1652 10.2592C34.7344 8.46382 29.9271 6.86418 27.3821 1.47629C27.2686 1.33877 26.5148 0.624471 26.1449 0.444445V4.77022Z" fill="url(#paint0_linear_2423_33240)" stroke="url(#paint1_linear_2423_33240)" stroke-width="1.05556" stroke-miterlimit="10" stroke-linecap="round" stroke-linejoin="round"/>
<path d="M40.102 15.1294C40.0956 14.6324 40.1158 14.9029 39.725 15.5508C39.493 15.9356 39.0368 16.6931 38.0112 17.5926C34.4898 20.6801 29.9129 24.2716 26.156 26.7409C25.0165 27.4901 23.1862 28.1743 21.8261 26.9324C21.3943 26.538 20.6926 25.3206 20.6864 23.5107C20.6734 19.5994 22.4121 20.0727 22.5434 19.1562V15.2934C22.7679 13.5303 19.6881 19.9351 19.8376 25.0941C19.8723 26.2851 20.0284 28.9878 21.4806 30.6496C22.5394 31.8616 24.6094 31.8193 26.156 30.7509C30.1556 27.988 34.4898 24.6899 38.0112 21.6023C39.222 20.5406 39.623 19.5815 39.9326 17.8076C40.1615 16.4968 40.1091 15.6314 40.1222 15.4932L40.102 15.1294Z" fill="url(#paint2_linear_2423_33240)" stroke="url(#paint3_linear_2423_33240)" stroke-width="1.05556" stroke-miterlimit="10" stroke-linecap="round" stroke-linejoin="round"/>
<path d="M28.3551 13.0826C28.811 10.3354 25.6499 8.23453 22.6984 10.2843C17.2948 14.0092 13.2253 20.177 9.94825 23.461C6.84398 26.5589 5.53025 27.49 4.06062 27.6597C3.26581 27.8141 1.01828 27.8748 1.12606 23.1498C1.22583 18.7716 3.19342 14.6007 3.38685 14.0285L3.54993 13.6464C4.24306 11.3682 0.740606 17.2338 0.478286 23.4092C0.181603 27.9039 1.8724 30.4482 3.86912 30.6528C5.70433 30.6836 6.815 29.5536 9.87638 26.4644C13.142 23.1828 17.1802 17.003 22.3205 13.2182C26.545 10.1075 27.9164 15.816 28.065 14.7778L28.3551 13.0826Z" fill="url(#paint4_linear_2423_33240)" stroke="url(#paint5_linear_2423_33240)" stroke-width="1.05556" stroke-miterlimit="10" stroke-linecap="round" stroke-linejoin="round"/>
<path d="M12.5178 7.20747C13.5209 7.71205 15.0263 8.44778 16.0502 9.04587L14.3469 12.6986C13.323 12.1005 11.8176 11.3648 10.8146 10.8602L12.5178 7.20747Z" fill="url(#paint6_linear_2423_33240)" stroke="url(#paint7_linear_2423_33240)" stroke-width="1.05556" stroke-miterlimit="10" stroke-linecap="round" stroke-linejoin="round"/>
<path d="M12.3693 26.6131C12.8452 26.4966 13.5676 26.5166 14.214 26.6627C14.5442 26.7373 14.8546 26.8446 15.1024 26.9838L14.796 30.3054C14.5751 30.2394 14.2954 30.1808 13.9938 30.1327C13.403 30.0381 12.7277 29.984 12.2457 29.9952L12.3693 26.6131Z" fill="url(#paint8_linear_2423_33240)" stroke="url(#paint9_linear_2423_33240)" stroke-width="1.05556" stroke-miterlimit="10" stroke-linecap="round" stroke-linejoin="round"/>
<path d="M15.0555 23.926C15.5612 23.8174 16.4918 23.8991 17.1222 24.1431C17.4299 24.262 17.6699 24.4866 17.6592 25.0342L17.4545 27.7709C17.2234 27.6867 17.1513 27.6548 16.8687 27.5927C16.2899 27.465 15.4528 27.3423 14.9318 27.3082L15.0555 23.926Z" fill="url(#paint10_linear_2423_33240)" stroke="url(#paint11_linear_2423_33240)" stroke-width="1.05556" stroke-miterlimit="10" stroke-linecap="round" stroke-linejoin="round"/>
</g>
<g clip-path="url(#clip1_2423_33240)">
<path d="M49.9929 24.5V21.716H52.2009V10.484H49.9929V7.7H56.9049C59.1609 7.7 60.8729 8.276 62.0409 9.428C63.2249 10.564 63.8169 12.26 63.8169 14.516V17.684C63.8169 19.94 63.2249 21.644 62.0409 22.796C60.8729 23.932 59.1609 24.5 56.9049 24.5H49.9929ZM55.3689 21.62H56.9529C58.2329 21.62 59.1689 21.284 59.7609 20.612C60.3529 19.94 60.6489 18.996 60.6489 17.78V14.42C60.6489 13.188 60.3529 12.244 59.7609 11.588C59.1689 10.916 58.2329 10.58 56.9529 10.58H55.3689V21.62ZM65.1646 24.5L69.5806 7.7H75.1006L79.5166 24.5H76.2526L75.3406 20.804H69.3406L68.4286 24.5H65.1646ZM70.0846 17.876H74.5966L72.5566 9.692H72.1246L70.0846 17.876ZM84.1132 24.5V18.716L78.4012 7.7H81.9292L85.4812 14.9H85.9132L89.4652 7.7H92.9932L87.2812 18.716V24.5H84.1132ZM94.7698 24.5V7.7H100.794L104.13 22.34H104.562V7.7H107.682V24.5H101.658L98.3218 9.86H97.8898V24.5H94.7698Z" fill="url(#paint12_linear_2423_33240)"/>
</g>
<defs>
<linearGradient id="paint0_linear_2423_33240" x1="41.5807" y1="51.2817" x2="17.4722" y2="45.4877" gradientUnits="userSpaceOnUse">
<stop stop-color="#9FD49C"/>
<stop offset="1" stop-color="#39693B"/>
</linearGradient>
<linearGradient id="paint1_linear_2423_33240" x1="41.5807" y1="51.2817" x2="17.4722" y2="45.4877" gradientUnits="userSpaceOnUse">
<stop stop-color="#9FD49C"/>
<stop offset="1" stop-color="#39693B"/>
</linearGradient>
<linearGradient id="paint2_linear_2423_33240" x1="42.2392" y1="60.7504" x2="10.0345" y2="48.3008" gradientUnits="userSpaceOnUse">
<stop stop-color="#9FD49C"/>
<stop offset="1" stop-color="#39693B"/>
</linearGradient>
<linearGradient id="paint3_linear_2423_33240" x1="42.2392" y1="60.7504" x2="10.0345" y2="48.3008" gradientUnits="userSpaceOnUse">
<stop stop-color="#9FD49C"/>
<stop offset="1" stop-color="#39693B"/>
</linearGradient>
<linearGradient id="paint4_linear_2423_33240" x1="31.316" y1="67.7387" x2="-12.06" y2="49.5515" gradientUnits="userSpaceOnUse">
<stop stop-color="#9FD49C"/>
<stop offset="1" stop-color="#39693B"/>
</linearGradient>
<linearGradient id="paint5_linear_2423_33240" x1="31.316" y1="67.7387" x2="-12.06" y2="49.5515" gradientUnits="userSpaceOnUse">
<stop stop-color="#9FD49C"/>
<stop offset="1" stop-color="#39693B"/>
</linearGradient>
<linearGradient id="paint6_linear_2423_33240" x1="16.5965" y1="22.3081" x2="7.84792" y2="19.6568" gradientUnits="userSpaceOnUse">
<stop stop-color="#9FD49C"/>
<stop offset="1" stop-color="#39693B"/>
</linearGradient>
<linearGradient id="paint7_linear_2423_33240" x1="16.5965" y1="22.3081" x2="7.84792" y2="19.6568" gradientUnits="userSpaceOnUse">
<stop stop-color="#9FD49C"/>
<stop offset="1" stop-color="#39693B"/>
</linearGradient>
<linearGradient id="paint8_linear_2423_33240" x1="15.4005" y1="36.899" x2="10.4746" y2="35.7118" gradientUnits="userSpaceOnUse">
<stop stop-color="#9FD49C"/>
<stop offset="1" stop-color="#39693B"/>
</linearGradient>
<linearGradient id="paint9_linear_2423_33240" x1="15.4005" y1="36.899" x2="10.4746" y2="35.7118" gradientUnits="userSpaceOnUse">
<stop stop-color="#9FD49C"/>
<stop offset="1" stop-color="#39693B"/>
</linearGradient>
<linearGradient id="paint10_linear_2423_33240" x1="17.9441" y1="34.5821" x2="13.2029" y2="33.526" gradientUnits="userSpaceOnUse">
<stop stop-color="#9FD49C"/>
<stop offset="1" stop-color="#39693B"/>
</linearGradient>
<linearGradient id="paint11_linear_2423_33240" x1="17.9441" y1="34.5821" x2="13.2029" y2="33.526" gradientUnits="userSpaceOnUse">
<stop stop-color="#9FD49C"/>
<stop offset="1" stop-color="#39693B"/>
</linearGradient>
<linearGradient id="paint12_linear_2423_33240" x1="151.416" y1="81.8154" x2="42.236" y2="40.2418" gradientUnits="userSpaceOnUse">
<stop stop-color="#9FD49C"/>
<stop offset="1" stop-color="#39693B"/>
</linearGradient>
<clipPath id="clip0_2423_33240">
<rect width="40.8889" height="32" fill="white"/>
</clipPath>
<clipPath id="clip1_2423_33240">
<rect width="61" height="31" fill="white" transform="translate(48.8889 0.5)"/>
</clipPath>
</defs>
</svg>
