<svg width="110" height="32" viewBox="0 0 110 32" fill="none" xmlns="http://www.w3.org/2000/svg">
<g clip-path="url(#clip0_2423_33282)">
<path d="M26.1449 4.77011C26.4482 4.78234 26.6725 4.78558 26.7297 4.88411C30.1592 10.9196 35.0038 12.5022 37.4346 14.2979C38.1526 14.8284 38.8333 15.7494 39.114 16.514C39.5878 17.9014 39.5247 19.137 39.5901 18.9016L39.7082 18.2634C39.7922 17.7687 39.9541 17.4106 40.0713 16.5668C40.4638 12.3608 38.5054 11.3831 37.1652 10.2591C34.7344 8.46371 29.9271 6.86407 27.3821 1.47618C27.2686 1.33866 26.5148 0.624363 26.1449 0.444336V4.77011Z" fill="#D5E8D0" stroke="#D5E8D0" stroke-width="1.05556" stroke-miterlimit="10" stroke-linecap="round" stroke-linejoin="round"/>
<path d="M40.102 15.1294C40.0956 14.6324 40.1158 14.9029 39.725 15.5508C39.493 15.9356 39.0368 16.693 38.0112 17.5926C34.4898 20.6801 29.9129 24.2716 26.156 26.7409C25.0165 27.4901 23.1862 28.1743 21.8261 26.9323C21.3943 26.538 20.6926 25.3206 20.6864 23.5106C20.6734 19.5994 22.4121 20.0726 22.5434 19.1562V15.2934C22.7679 13.5303 19.6881 19.9351 19.8376 25.0941C19.8723 26.285 20.0284 28.9878 21.4806 30.6496C22.5394 31.8616 24.6094 31.8193 26.156 30.7509C30.1556 27.9879 34.4898 24.6898 38.0112 21.6023C39.222 20.5406 39.623 19.5815 39.9326 17.8076C40.1615 16.4968 40.1091 15.6314 40.1222 15.4931L40.102 15.1294Z" fill="#D5E8D0" stroke="#D5E8D0" stroke-width="1.05556" stroke-miterlimit="10" stroke-linecap="round" stroke-linejoin="round"/>
<path d="M28.3551 13.0825C28.811 10.3353 25.6499 8.2344 22.6984 10.2842C17.2948 14.0091 13.2253 20.1769 9.94825 23.4609C6.84398 26.5588 5.53025 27.4899 4.06062 27.6596C3.26581 27.814 1.01828 27.8746 1.12606 23.1496C1.22583 18.7715 3.19342 14.6005 3.38685 14.0284L3.54993 13.6463C4.24306 11.368 0.740606 17.2337 0.478286 23.4091C0.181603 27.9037 1.8724 30.4481 3.86912 30.6527C5.70433 30.6834 6.815 29.5535 9.87638 26.4643C13.142 23.1826 17.1802 17.0029 22.3205 13.2181C26.545 10.1073 27.9164 15.8159 28.065 14.7776L28.3551 13.0825Z" fill="#D5E8D0" stroke="#D5E8D0" stroke-width="1.05556" stroke-miterlimit="10" stroke-linecap="round" stroke-linejoin="round"/>
<path d="M12.5178 7.20728C13.5209 7.71185 15.0263 8.44759 16.0502 9.04568L14.3469 12.6984C13.323 12.1003 11.8176 11.3646 10.8146 10.86L12.5178 7.20728Z" fill="#D5E8D0" stroke="#D5E8D0" stroke-width="1.05556" stroke-miterlimit="10" stroke-linecap="round" stroke-linejoin="round"/>
<path d="M12.3693 26.613C12.8452 26.4965 13.5676 26.5165 14.214 26.6626C14.5442 26.7372 14.8546 26.8445 15.1024 26.9837L14.796 30.3053C14.5751 30.2393 14.2954 30.1807 13.9938 30.1326C13.403 30.038 12.7277 29.9839 12.2457 29.9952L12.3693 26.613Z" fill="#D5E8D0" stroke="#D5E8D0" stroke-width="1.05556" stroke-miterlimit="10" stroke-linecap="round" stroke-linejoin="round"/>
<path d="M15.0555 23.9258C15.5612 23.8172 16.4918 23.8989 17.1222 24.1429C17.4299 24.2619 17.6699 24.4864 17.6592 25.034L17.4545 27.7708C17.2234 27.6865 17.1513 27.6547 16.8687 27.5925C16.2899 27.4649 15.4528 27.3421 14.9318 27.308L15.0555 23.9258Z" fill="#D5E8D0" stroke="#D5E8D0" stroke-width="1.05556" stroke-miterlimit="10" stroke-linecap="round" stroke-linejoin="round"/>
</g>
<g clip-path="url(#clip1_2423_33282)">
<path d="M49.9929 24.5V21.716H52.2009V10.484H49.9929V7.7H56.9049C59.1609 7.7 60.8729 8.276 62.0409 9.428C63.2249 10.564 63.8169 12.26 63.8169 14.516V17.684C63.8169 19.94 63.2249 21.644 62.0409 22.796C60.8729 23.932 59.1609 24.5 56.9049 24.5H49.9929ZM55.3689 21.62H56.9529C58.2329 21.62 59.1689 21.284 59.7609 20.612C60.3529 19.94 60.6489 18.996 60.6489 17.78V14.42C60.6489 13.188 60.3529 12.244 59.7609 11.588C59.1689 10.916 58.2329 10.58 56.9529 10.58H55.3689V21.62ZM65.1646 24.5L69.5806 7.7H75.1006L79.5166 24.5H76.2526L75.3406 20.804H69.3406L68.4286 24.5H65.1646ZM70.0846 17.876H74.5966L72.5566 9.692H72.1246L70.0846 17.876ZM84.1132 24.5V18.716L78.4012 7.7H81.9292L85.4812 14.9H85.9132L89.4652 7.7H92.9932L87.2812 18.716V24.5H84.1132ZM94.7698 24.5V7.7H100.794L104.13 22.34H104.562V7.7H107.682V24.5H101.658L98.3218 9.86H97.8898V24.5H94.7698Z" fill="#D5E8D0"/>
</g>
<defs>
<clipPath id="clip0_2423_33282">
<rect width="40.8889" height="32" fill="white"/>
</clipPath>
<clipPath id="clip1_2423_33282">
<rect width="61" height="31" fill="white" transform="translate(48.8889 0.5)"/>
</clipPath>
</defs>
</svg>
