<svg width="20" height="20" viewBox="0 0 20 20" fill="none" xmlns="http://www.w3.org/2000/svg">
<path d="M10 18.3334C14.6024 18.3334 18.3334 14.6025 18.3334 10.0001C18.3334 5.39771 14.6024 1.66675 10 1.66675C5.39765 1.66675 1.66669 5.39771 1.66669 10.0001C1.66669 14.6025 5.39765 18.3334 10 18.3334Z" stroke="#344054" stroke-width="1.66667" stroke-linecap="round" stroke-linejoin="round"/>
<path d="M7.91669 7.47119C7.91669 7.07345 7.91669 6.87459 7.99981 6.76356C8.07224 6.66681 8.18312 6.60628 8.30367 6.59767C8.44201 6.58779 8.60929 6.69533 8.94386 6.91041L12.8777 9.4393C13.168 9.62593 13.3132 9.71925 13.3633 9.83791C13.4071 9.94159 13.4071 10.0586 13.3633 10.1623C13.3132 10.2809 13.168 10.3742 12.8777 10.5609L8.94386 13.0898C8.60929 13.3048 8.44201 13.4124 8.30367 13.4025C8.18312 13.3939 8.07224 13.3334 7.99981 13.2366C7.91669 13.1256 7.91669 12.9267 7.91669 12.529V7.47119Z" stroke="#344054" stroke-width="1.66667" stroke-linecap="round" stroke-linejoin="round"/>
</svg>
